<?xml version="1.0" encoding="utf-8"?>
<!-- Svg Vector Icons : http://www.onlinewebfonts.com/icon -->
<!DOCTYPE svg PUBLIC "-//W3C//DTD SVG 1.1//EN" "http://www.w3.org/Graphics/SVG/1.1/DTD/svg11.dtd">
<svg version="1.1" xmlns="http://www.w3.org/2000/svg" xmlns:xlink="http://www.w3.org/1999/xlink" x="0px" y="0px" viewBox="0 0 1000 1000" enable-background="new 0 0 1000 1000" xml:space="preserve">
<metadata> Svg Vector Icons : http://www.onlinewebfonts.com/icon </metadata>
<g><g transform="translate(0.000000,512.000000) scale(0.100000,-0.100000)"><path d="M100,3440.9V1861.8h2373.4h2373.4v1579.1V5020H2473.4H100V3440.9z"/><path d="M5153.1,3440.9V1861.8h2373.4H9900v1579.1V5020H7526.6H5153.1V3440.9z"/><path d="M100,120v-1435.5h1186.7h1186.7V120v1435.5H1286.7H100V120z"/><path d="M2783.5,125.7l5.7-1431.7H5000h2210.7l5.7,1431.7l3.8,1429.8H5000H2779.7L2783.5,125.7z"/><path d="M7526.6,120v-1435.5h1186.7H9900V120v1435.5H8713.3H7526.6V120z"/><path d="M100-3200.9V-4780h2373.4h2373.4v1579.1v1579.1H2473.4H100V-3200.9z"/><path d="M5153.1-3200.9V-4780h2373.4H9900v1579.1v1579.1H7526.6H5153.1V-3200.9z"/></g></g>
</svg>